<?xml version="1.0" encoding="UTF-8" standalone="no"?>
<!-- Created with Inkscape (http://www.inkscape.org/) -->

<svg
   version="1.1"
   id="svg2"
   xml:space="preserve"
   width="603.11292"
   height="354.78638"
   viewBox="0 0 603.11292 354.78638"
   xmlns="http://www.w3.org/2000/svg"
   xmlns:svg="http://www.w3.org/2000/svg"><defs
     id="defs6"><clipPath
       clipPathUnits="userSpaceOnUse"
       id="clipPath16"><path
         d="M 0,612 H 792 V 0 H 0 Z"
         id="path14" /></clipPath></defs><g
     id="g8"
     transform="matrix(1.3333333,0,0,-1.3333333,-228.75599,534.94212)"><g
       id="g10"><g
         id="g12"
         clip-path="url(#clipPath16)"><g
           id="g18"
           transform="translate(183.77,145.0146)"><path
             d="m 0,0 v 2.184 c -0.205,1.078 -0.716,2.027 -1.533,2.844 -1.087,1.088 -2.4,1.63 -3.937,1.63 -1.537,0 -2.849,-0.542 -3.936,-1.63 -1.088,-1.089 -1.631,-2.399 -1.631,-3.936 0,-1.538 0.543,-2.848 1.631,-3.931 1.087,-1.085 2.399,-1.625 3.936,-1.625 1.537,0 2.85,0.543 3.937,1.63 C -0.716,-2.016 -0.205,-1.071 0,0 M 1.103,-5.298 H 0 v 2.452 c -0.212,-0.285 -0.446,-0.56 -0.7,-0.82 -1.316,-1.317 -2.906,-1.975 -4.77,-1.975 -1.856,0 -3.442,0.658 -4.758,1.975 -1.317,1.314 -1.975,2.9 -1.975,4.758 0,1.864 0.658,3.454 1.975,4.768 1.316,1.318 2.902,1.975 4.758,1.975 1.864,0 3.454,-0.657 4.77,-1.975 C -0.446,5.599 -0.212,5.325 0,5.04 v 9.283 h 1.103 z"
             style="fill:#dba4a2;fill-opacity:1;fill-rule:nonzero;stroke:none"
             id="path20" /></g><g
           id="g22"
           transform="translate(197.8848,150.5693)"><path
             d="m 0,0 c -0.956,0.736 -2.069,1.104 -3.335,1.104 -1.53,0 -2.837,-0.542 -3.925,-1.625 -1.087,-1.083 -1.631,-2.393 -1.631,-3.93 0,-1.267 0.369,-2.379 1.104,-3.336 z m -7.039,-8.596 c 1.039,-0.949 2.273,-1.423 3.704,-1.423 1.536,0 2.849,0.543 3.936,1.63 0.139,0.14 0.27,0.283 0.393,0.43 L 2.159,-8.375 C 1.945,-8.669 1.706,-8.952 1.435,-9.221 c -1.317,-1.317 -2.906,-1.974 -4.77,-1.974 -1.856,0 -3.442,0.657 -4.759,1.974 -1.316,1.315 -1.974,2.906 -1.974,4.77 0,1.856 0.658,3.442 1.974,4.757 1.317,1.317 2.903,1.974 4.759,1.974 1.594,0 2.988,-0.477 4.182,-1.433 C 1.042,0.683 1.239,0.504 1.435,0.306 1.509,0.232 1.578,0.159 1.643,0.086 L 0.81,-0.746 Z"
             style="fill:#dba4a2;fill-opacity:1;fill-rule:nonzero;stroke:none"
             id="path24" /></g><g
           id="g26"
           transform="translate(206.2979,145.9082)"><path
             d="m 0,0 c -0.94,0.508 -1.59,0.94 -1.95,1.301 -0.564,0.563 -0.846,1.244 -0.846,2.037 0,0.8 0.282,1.484 0.846,2.053 0.564,0.569 1.242,0.852 2.036,0.852 0.801,0 1.463,-0.263 1.986,-0.784 C 2.579,4.944 2.833,4.358 2.833,3.705 V 3.644 L 1.877,3.264 C 1.794,3.885 1.6,4.352 1.294,4.661 0.987,4.972 0.584,5.128 0.086,5.128 -0.404,5.128 -0.826,4.953 -1.178,4.606 -1.529,4.26 -1.704,3.837 -1.704,3.338 c 0,-0.492 0.175,-0.913 0.526,-1.265 0.205,-0.204 0.638,-0.514 1.301,-0.93 1.046,-0.573 1.791,-1.081 2.232,-1.522 0.694,-0.703 1.042,-1.54 1.042,-2.515 0,-0.997 -0.348,-1.845 -1.042,-2.543 -0.695,-0.7 -1.538,-1.049 -2.527,-1.049 -0.989,0 -1.831,0.349 -2.526,1.049 -0.696,0.698 -1.042,1.465 -1.042,2.3 l 1.091,0.281 c 0,-0.72 0.243,-1.32 0.73,-1.802 0.486,-0.484 1.069,-0.725 1.747,-0.725 0.679,0 1.262,0.241 1.748,0.725 0.486,0.482 0.73,1.07 0.73,1.764 0,0.678 -0.242,1.26 -0.724,1.743 C 1.321,-0.889 0.793,-0.505 0,0"
             style="fill:#dba4a2;fill-opacity:1;fill-rule:nonzero;stroke:none"
             id="path28" /></g><g
           id="g30"
           transform="translate(214.7231,151.7607)"><path
             d="M 0,0 V 5.125 H 1.103 V 0 H 3.556 V -1.105 H 1.103 V -12.044 H 0 V -1.105 H -2.454 V 0 Z"
             style="fill:#dba4a2;fill-opacity:1;fill-rule:nonzero;stroke:none"
             id="path32" /></g><path
           d="m 222.571,139.717 h -1.103 v 12.044 h 1.103 z m 0.227,15.992 c 0.217,-0.214 0.326,-0.471 0.326,-0.774 0,-0.311 -0.109,-0.573 -0.326,-0.785 -0.216,-0.213 -0.476,-0.319 -0.778,-0.319 -0.303,0 -0.562,0.106 -0.779,0.319 -0.217,0.212 -0.325,0.474 -0.325,0.785 0,0.303 0.108,0.56 0.325,0.774 0.217,0.212 0.476,0.317 0.779,0.317 0.302,0 0.562,-0.105 0.778,-0.317"
           style="fill:#dba4a2;fill-opacity:1;fill-rule:nonzero;stroke:none"
           id="path34" /><g
           id="g36"
           transform="translate(227.5986,149.0732)"><path
             d="M 0,0 V -9.356 H -1.103 V 2.688 H 0 V 1.912 C 1.006,2.91 2.174,3.409 3.508,3.409 4.93,3.409 6.086,2.963 6.978,2.073 7.869,1.182 8.328,0.058 8.352,-1.301 V -9.356 H 7.249 v 7.959 c 0,1.02 -0.371,1.894 -1.111,2.618 C 5.398,1.944 4.521,2.306 3.508,2.306 2.494,2.306 1.62,1.949 0.883,1.239 0.483,0.839 0.188,0.426 0,0"
             style="fill:#dba4a2;fill-opacity:1;fill-rule:nonzero;stroke:none"
             id="path38" /></g><g
           id="g40"
           transform="translate(251.5254,145.0146)"><path
             d="m 0,0 v 2.184 c -0.205,1.078 -0.716,2.027 -1.533,2.844 -1.087,1.088 -2.4,1.63 -3.937,1.63 -1.537,0 -2.849,-0.542 -3.936,-1.63 -1.087,-1.089 -1.631,-2.399 -1.631,-3.936 0,-1.538 0.544,-2.848 1.631,-3.931 1.087,-1.085 2.399,-1.625 3.936,-1.625 1.537,0 2.85,0.543 3.937,1.63 C -0.716,-2.016 -0.205,-1.071 0,0 M 1.104,-5.298 H 0 v 2.452 c -0.212,-0.285 -0.446,-0.56 -0.7,-0.82 -1.316,-1.317 -2.906,-1.975 -4.77,-1.975 -1.856,0 -3.442,0.658 -4.758,1.975 -1.317,1.314 -1.974,2.9 -1.974,4.758 0,1.864 0.657,3.454 1.974,4.768 1.316,1.318 2.902,1.975 4.758,1.975 1.864,0 3.454,-0.657 4.77,-1.975 C -0.446,5.599 -0.212,5.325 0,5.04 v 1.706 h 1.104 z"
             style="fill:#dba4a2;fill-opacity:1;fill-rule:nonzero;stroke:none"
             id="path42" /></g><g
           id="g44"
           transform="translate(258.0864,151.7607)"><path
             d="M 0,0 V 5.125 H 1.103 V 0 H 3.556 V -1.105 H 1.103 V -12.044 H 0 V -1.105 H -2.454 V 0 Z"
             style="fill:#dba4a2;fill-opacity:1;fill-rule:nonzero;stroke:none"
             id="path46" /></g><path
           d="m 265.935,139.717 h -1.104 v 12.044 h 1.104 z m 0.227,15.992 c 0.216,-0.214 0.325,-0.471 0.325,-0.774 0,-0.311 -0.109,-0.573 -0.325,-0.785 -0.217,-0.213 -0.477,-0.319 -0.779,-0.319 -0.302,0 -0.562,0.106 -0.778,0.319 -0.217,0.212 -0.326,0.474 -0.326,0.785 0,0.303 0.109,0.56 0.326,0.774 0.216,0.212 0.476,0.317 0.778,0.317 0.302,0 0.562,-0.105 0.779,-0.317"
           style="fill:#dba4a2;fill-opacity:1;fill-rule:nonzero;stroke:none"
           id="path48" /><g
           id="g50"
           transform="translate(271.9185,150.043)"><path
             d="m 0,0 c -1.087,-1.089 -1.631,-2.399 -1.631,-3.937 0,-1.538 0.544,-2.847 1.631,-3.93 1.087,-1.085 2.399,-1.625 3.937,-1.625 1.537,0 2.849,0.54 3.936,1.625 1.087,1.083 1.632,2.392 1.632,3.93 C 9.505,-2.399 8.96,-1.089 7.873,0 6.786,1.088 5.474,1.63 3.937,1.63 2.399,1.63 1.087,1.088 0,0 m 3.937,2.807 c 1.864,0 3.452,-0.658 4.765,-1.975 1.311,-1.314 1.967,-2.904 1.967,-4.769 0,-1.857 -0.656,-3.443 -1.967,-4.757 -1.313,-1.318 -2.901,-1.975 -4.765,-1.975 -1.856,0 -3.442,0.657 -4.759,1.975 -1.316,1.314 -1.974,2.9 -1.974,4.757 0,1.865 0.658,3.455 1.974,4.769 1.317,1.317 2.903,1.975 4.759,1.975"
             style="fill:#dba4a2;fill-opacity:1;fill-rule:nonzero;stroke:none"
             id="path52" /></g><g
           id="g54"
           transform="translate(286.6353,149.0732)"><path
             d="M 0,0 V -9.356 H -1.103 V 2.688 H 0 V 1.912 C 1.005,2.91 2.174,3.409 3.507,3.409 4.93,3.409 6.086,2.963 6.978,2.073 7.869,1.182 8.327,0.058 8.352,-1.301 V -9.356 H 7.248 v 7.959 c 0,1.02 -0.37,1.894 -1.11,2.618 C 5.398,1.944 4.521,2.306 3.507,2.306 2.494,2.306 1.619,1.949 0.883,1.239 0.482,0.839 0.188,0.426 0,0"
             style="fill:#dba4a2;fill-opacity:1;fill-rule:nonzero;stroke:none"
             id="path56" /></g><g
           id="g58"
           transform="translate(316.73,143.7754)"><path
             d="m 0,0 c -0.106,0.042 -0.208,0.09 -0.307,0.147 -0.392,0.221 -0.882,0.639 -1.471,1.25 -0.393,0.362 -0.671,0.586 -0.834,0.676 -0.18,0.097 -0.36,0.148 -0.539,0.148 -0.107,0 -0.209,-0.014 -0.307,-0.037 C -3.752,2.101 -3.973,1.931 -4.12,1.669 -4.227,1.487 -4.28,1.308 -4.28,1.129 c 0,-0.099 0.016,-0.2 0.05,-0.306 0.081,-0.297 0.24,-0.508 0.478,-0.639 0.155,-0.08 0.367,-0.122 0.637,-0.122 0.148,0 0.314,0.012 0.503,0.037 l -0.111,-1.006 c -0.204,-0.058 -0.409,-0.086 -0.612,-0.086 -0.328,0 -0.647,0.086 -0.957,0.258 -0.491,0.268 -0.814,0.694 -0.969,1.275 -0.058,0.205 -0.087,0.4 -0.087,0.589 0,0.358 0.099,0.71 0.296,1.055 0.302,0.521 0.739,0.862 1.311,1.018 0.205,0.055 0.406,0.085 0.601,0.085 0.36,0 0.708,-0.099 1.042,-0.294 C -1.77,2.813 -1.345,2.448 -0.822,1.901 -0.347,1.469 0,1.19 0.22,1.066 0.466,0.929 0.719,0.859 0.981,0.859 c 0.147,0 0.294,0.019 0.441,0.061 0.426,0.114 0.749,0.363 0.969,0.749 0.139,0.253 0.208,0.51 0.208,0.772 0,0.138 -0.019,0.283 -0.06,0.43 C 2.423,3.287 2.179,3.606 1.803,3.827 1.573,3.958 1.315,4.022 1.029,4.022 0.826,4.022 0.604,3.99 0.368,3.924 L 0.356,5.016 C 0.585,5.082 0.813,5.114 1.042,5.114 1.476,5.114 1.9,4.995 2.318,4.758 2.956,4.399 3.373,3.864 3.568,3.151 3.634,2.908 3.667,2.669 3.667,2.441 3.667,1.99 3.549,1.561 3.311,1.154 2.951,0.515 2.412,0.099 1.692,-0.099 1.48,-0.156 1.275,-0.188 1.079,-0.195 0.809,-1.078 0.323,-1.873 -0.38,-2.574 c -1.137,-1.145 -2.506,-1.717 -4.109,-1.717 -1.602,0 -2.972,0.567 -4.107,1.703 -1.137,1.138 -1.706,2.51 -1.706,4.121 0,1.603 0.561,3 1.68,4.195 0.769,0.825 1.767,1.443 2.993,1.85 -0.588,0.255 -1.192,0.71 -1.809,1.367 -0.617,0.66 -0.926,1.566 -0.926,2.717 0,1.129 0.406,2.099 1.215,2.912 0.809,0.815 1.79,1.221 2.942,1.221 1.145,0 2.125,-0.404 2.944,-1.214 0.449,-0.434 0.761,-0.919 0.932,-1.459 l -0.993,-0.393 c -0.147,0.402 -0.388,0.77 -0.724,1.106 -0.597,0.588 -1.316,0.882 -2.159,0.882 -0.842,0 -1.561,-0.296 -2.158,-0.89 -0.597,-0.593 -0.895,-1.314 -0.895,-2.165 0,-0.841 0.289,-1.569 0.864,-2.183 0.577,-0.612 1.11,-1.013 1.601,-1.2 0.491,-0.188 1.104,-0.287 1.839,-0.294 V 6.953 L -3.838,6.93 C -5.629,6.595 -6.974,5.935 -7.874,4.956 -8.772,3.975 -9.223,2.834 -9.223,1.533 c 0,-1.307 0.462,-2.425 1.386,-3.348 0.924,-0.924 2.04,-1.386 3.348,-1.386 1.301,0 2.412,0.462 3.336,1.386 0.54,0.54 0.924,1.144 1.153,1.815"
             style="fill:#dba4a2;fill-opacity:1;fill-rule:nonzero;stroke:none"
             id="path60" /></g><g
           id="g62"
           transform="translate(341.354,150.5693)"><path
             d="m 0,0 c -0.956,0.736 -2.068,1.104 -3.335,1.104 -1.53,0 -2.837,-0.542 -3.925,-1.625 -1.087,-1.083 -1.63,-2.393 -1.63,-3.93 0,-1.267 0.368,-2.379 1.103,-3.336 z m -7.039,-8.596 c 1.039,-0.949 2.273,-1.423 3.704,-1.423 1.537,0 2.849,0.543 3.936,1.63 0.139,0.14 0.27,0.283 0.393,0.43 L 2.16,-8.375 C 1.946,-8.669 1.706,-8.952 1.436,-9.221 c -1.317,-1.317 -2.907,-1.974 -4.771,-1.974 -1.856,0 -3.442,0.657 -4.759,1.974 -1.316,1.315 -1.974,2.906 -1.974,4.77 0,1.856 0.658,3.442 1.974,4.757 1.317,1.317 2.903,1.974 4.759,1.974 1.594,0 2.988,-0.477 4.182,-1.433 C 1.042,0.683 1.239,0.504 1.436,0.306 1.509,0.232 1.578,0.159 1.644,0.086 L 0.81,-0.746 Z"
             style="fill:#dba4a2;fill-opacity:1;fill-rule:nonzero;stroke:none"
             id="path64" /></g><g
           id="g66"
           transform="translate(358.0454,145.0146)"><path
             d="m 0,0 v 2.184 c -0.205,1.078 -0.716,2.027 -1.533,2.844 -1.087,1.088 -2.4,1.63 -3.936,1.63 -1.538,0 -2.85,-0.542 -3.937,-1.63 -1.088,-1.089 -1.631,-2.399 -1.631,-3.936 0,-1.538 0.543,-2.851 1.631,-3.938 1.087,-1.087 2.399,-1.632 3.937,-1.632 1.536,0 2.849,0.545 3.936,1.632 C -0.716,-2.027 -0.205,-1.08 0,0 M 1.103,-9.897 H 0 v 7.051 c -0.213,-0.285 -0.446,-0.56 -0.699,-0.82 -1.317,-1.317 -2.906,-1.975 -4.77,-1.975 -1.856,0 -3.443,0.658 -4.759,1.975 -1.316,1.314 -1.975,2.9 -1.975,4.758 0,1.864 0.659,3.452 1.975,4.764 1.316,1.313 2.903,1.967 4.759,1.967 1.864,0 3.453,-0.654 4.77,-1.963 C -0.446,5.599 -0.213,5.325 0,5.04 v 1.706 h 1.103 z"
             style="fill:#dba4a2;fill-opacity:1;fill-rule:nonzero;stroke:none"
             id="path68" /></g><g
           id="g70"
           transform="translate(367.7939,139.5439)"><path
             d="M 0,0 C -1.504,0 -2.702,0.446 -3.592,1.338 -4.484,2.229 -4.941,3.354 -4.966,4.71 v 7.507 h 1.104 V 4.809 c 0,-1.023 0.372,-1.894 1.115,-2.614 0.736,-0.726 1.648,-1.09 2.736,-1.09 1.013,0 1.89,0.362 2.63,1.085 0.74,0.722 1.109,1.596 1.109,2.619 v 7.408 H 4.833 V 4.71 C 4.809,3.354 4.35,2.229 3.459,1.338 2.567,0.446 1.415,0 0,0"
             style="fill:#dba4a2;fill-opacity:1;fill-rule:nonzero;stroke:none"
             id="path72" /></g><g
           id="g74"
           transform="translate(388.2007,145.0146)"><path
             d="m 0,0 v 2.184 c -0.205,1.078 -0.716,2.027 -1.533,2.844 -1.087,1.088 -2.4,1.63 -3.937,1.63 -1.537,0 -2.849,-0.542 -3.936,-1.63 -1.088,-1.089 -1.631,-2.399 -1.631,-3.936 0,-1.538 0.543,-2.848 1.631,-3.931 1.087,-1.085 2.399,-1.625 3.936,-1.625 1.537,0 2.85,0.543 3.937,1.63 C -0.716,-2.016 -0.205,-1.071 0,0 M 1.104,-5.298 H 0 v 2.452 c -0.212,-0.285 -0.446,-0.56 -0.7,-0.82 -1.316,-1.317 -2.906,-1.975 -4.77,-1.975 -1.856,0 -3.442,0.658 -4.758,1.975 -1.317,1.314 -1.974,2.9 -1.974,4.758 0,1.864 0.657,3.454 1.974,4.768 1.316,1.318 2.902,1.975 4.758,1.975 1.864,0 3.454,-0.657 4.77,-1.975 C -0.446,5.599 -0.212,5.325 0,5.04 v 1.706 h 1.104 z"
             style="fill:#dba4a2;fill-opacity:1;fill-rule:nonzero;stroke:none"
             id="path76" /></g><path
           d="m 394.087,139.717 h -1.103 v 19.621 h 1.103 z"
           style="fill:#dba4a2;fill-opacity:1;fill-rule:nonzero;stroke:none"
           id="path78" /><path
           d="m 399.115,139.717 h -1.104 v 12.044 h 1.104 z m 0.228,15.992 c 0.216,-0.214 0.325,-0.471 0.325,-0.774 0,-0.311 -0.109,-0.573 -0.325,-0.785 -0.218,-0.213 -0.478,-0.319 -0.78,-0.319 -0.302,0 -0.562,0.106 -0.778,0.319 -0.217,0.212 -0.325,0.474 -0.325,0.785 0,0.303 0.108,0.56 0.325,0.774 0.216,0.212 0.476,0.317 0.778,0.317 0.302,0 0.562,-0.105 0.78,-0.317"
           style="fill:#dba4a2;fill-opacity:1;fill-rule:nonzero;stroke:none"
           id="path80" /><g
           id="g82"
           transform="translate(404.7568,151.7607)"><path
             d="M 0,0 V 5.125 H 1.103 V 0 H 3.554 V -1.105 H 1.103 V -12.044 H 0 V -1.105 H -2.454 V 0 Z"
             style="fill:#dba4a2;fill-opacity:1;fill-rule:nonzero;stroke:none"
             id="path84" /></g><g
           id="g86"
           transform="translate(415.585,140.7969)"><path
             d="m 0,0 -2.724,-5.68 h -1.077 l 3.247,6.82 -4.695,9.824 h 1.25 L 0,2.328 3.997,10.964 H 5.236 L 0,-0.014 Z"
             style="fill:#dba4a2;fill-opacity:1;fill-rule:nonzero;stroke:none"
             id="path88" /></g><g
           id="g90"
           transform="translate(438.2959,142.9043)"><path
             d="M 0,0 V 8.856 H 1.104 V 0.271 c 0,-0.719 0.244,-1.321 0.731,-1.804 0.484,-0.483 1.068,-0.722 1.746,-0.722 0.679,0 1.265,0.239 1.754,0.722 0.45,0.451 0.691,0.993 0.724,1.632 H 6.048 V 8.856 H 7.15 V 0.099 C 7.118,-0.841 6.77,-1.644 6.107,-2.305 5.413,-3.009 4.572,-3.36 3.581,-3.36 2.593,-3.36 1.749,-3.009 1.056,-2.305 0.867,-2.116 0.704,-1.921 0.565,-1.717 0.426,-1.921 0.258,-2.116 0.062,-2.305 -0.634,-3.009 -1.476,-3.36 -2.464,-3.36 c -0.99,0 -1.832,0.351 -2.525,1.055 -0.664,0.661 -1.012,1.464 -1.044,2.404 V 8.856 H -4.93 V 0.099 h -0.011 c 0.032,-0.639 0.278,-1.181 0.735,-1.632 0.483,-0.483 1.062,-0.722 1.742,-0.722 0.679,0 1.262,0.239 1.754,0.722 C -0.294,-1.114 -0.057,-0.604 0,0"
             style="fill:#dba4a2;fill-opacity:1;fill-rule:nonzero;stroke:none"
             id="path92" /></g><g
           id="g94"
           transform="translate(458.2119,150.5693)"><path
             d="m 0,0 c -0.956,0.736 -2.068,1.104 -3.335,1.104 -1.53,0 -2.838,-0.542 -3.926,-1.625 -1.087,-1.083 -1.629,-2.393 -1.629,-3.93 0,-1.267 0.368,-2.379 1.103,-3.336 z m -7.04,-8.596 c 1.039,-0.949 2.273,-1.423 3.705,-1.423 1.535,0 2.848,0.543 3.936,1.63 0.139,0.14 0.27,0.283 0.392,0.43 L 2.158,-8.375 C 1.944,-8.669 1.706,-8.952 1.435,-9.221 c -1.318,-1.317 -2.906,-1.974 -4.77,-1.974 -1.856,0 -3.442,0.657 -4.76,1.974 -1.314,1.315 -1.974,2.906 -1.974,4.77 0,1.856 0.66,3.442 1.974,4.757 1.318,1.317 2.904,1.974 4.76,1.974 1.593,0 2.988,-0.477 4.181,-1.433 C 1.041,0.683 1.239,0.504 1.435,0.306 1.508,0.232 1.577,0.159 1.644,0.086 L 0.81,-0.746 Z"
             style="fill:#dba4a2;fill-opacity:1;fill-rule:nonzero;stroke:none"
             id="path96" /></g><g
           id="g98"
           transform="translate(475.209,145.0146)"><path
             d="m 0,0 v 2.184 c -0.204,1.078 -0.715,2.027 -1.533,2.844 -1.087,1.088 -2.4,1.63 -3.937,1.63 -1.536,0 -2.848,-0.542 -3.935,-1.63 -1.087,-1.089 -1.632,-2.399 -1.632,-3.936 0,-1.538 0.545,-2.848 1.632,-3.931 1.087,-1.085 2.399,-1.625 3.935,-1.625 1.537,0 2.85,0.543 3.937,1.63 C -0.715,-2.016 -0.204,-1.071 0,0 M 1.104,-5.298 H 0 v 2.452 c -0.211,-0.285 -0.445,-0.56 -0.698,-0.82 -1.318,-1.317 -2.908,-1.975 -4.772,-1.975 -1.855,0 -3.441,0.658 -4.758,1.975 -1.317,1.314 -1.974,2.9 -1.974,4.758 0,1.864 0.657,3.454 1.974,4.768 1.317,1.318 2.903,1.975 4.758,1.975 1.864,0 3.454,-0.657 4.772,-1.975 C -0.445,5.599 -0.211,5.325 0,5.04 v 9.283 h 1.104 z"
             style="fill:#dba4a2;fill-opacity:1;fill-rule:nonzero;stroke:none"
             id="path100" /></g><g
           id="g102"
           transform="translate(491.8887,145.0146)"><path
             d="m 0,0 v 2.184 c -0.204,1.078 -0.717,2.027 -1.533,2.844 -1.087,1.088 -2.4,1.63 -3.937,1.63 -1.538,0 -2.85,-0.542 -3.937,-1.63 -1.087,-1.089 -1.63,-2.399 -1.63,-3.936 0,-1.538 0.543,-2.848 1.63,-3.931 1.087,-1.085 2.399,-1.625 3.937,-1.625 1.537,0 2.85,0.543 3.937,1.63 C -0.717,-2.016 -0.204,-1.071 0,0 M 1.104,-5.298 H 0 v 2.452 c -0.214,-0.285 -0.445,-0.56 -0.701,-0.82 -1.315,-1.317 -2.905,-1.975 -4.769,-1.975 -1.857,0 -3.443,0.658 -4.758,1.975 -1.317,1.314 -1.974,2.9 -1.974,4.758 0,1.864 0.657,3.454 1.974,4.768 1.315,1.318 2.901,1.975 4.758,1.975 1.864,0 3.454,-0.657 4.769,-1.975 C -0.445,5.599 -0.214,5.325 0,5.04 v 9.283 h 1.104 z"
             style="fill:#dba4a2;fill-opacity:1;fill-rule:nonzero;stroke:none"
             id="path104" /></g><path
           d="m 498.019,139.717 h -1.104 v 12.044 h 1.104 z m 0.227,15.992 c 0.216,-0.214 0.324,-0.471 0.324,-0.774 0,-0.311 -0.108,-0.573 -0.324,-0.785 -0.218,-0.213 -0.477,-0.319 -0.779,-0.319 -0.303,0 -0.563,0.106 -0.78,0.319 -0.215,0.212 -0.323,0.474 -0.323,0.785 0,0.303 0.108,0.56 0.323,0.774 0.217,0.212 0.477,0.317 0.78,0.317 0.302,0 0.561,-0.105 0.779,-0.317"
           style="fill:#dba4a2;fill-opacity:1;fill-rule:nonzero;stroke:none"
           id="path106" /><g
           id="g108"
           transform="translate(503.0479,149.0732)"><path
             d="M 0,0 V -9.356 H -1.104 V 2.688 H 0 V 1.912 C 1.004,2.91 2.174,3.409 3.507,3.409 4.93,3.409 6.086,2.963 6.978,2.073 7.867,1.182 8.327,0.058 8.35,-1.301 V -9.356 H 7.247 v 7.959 c 0,1.02 -0.37,1.894 -1.11,2.618 C 5.396,1.944 4.521,2.306 3.507,2.306 2.494,2.306 1.618,1.949 0.883,1.239 0.482,0.839 0.188,0.426 0,0"
             style="fill:#dba4a2;fill-opacity:1;fill-rule:nonzero;stroke:none"
             id="path110" /></g><g
           id="g112"
           transform="translate(526.9609,147.2578)"><path
             d="m 0,0 c -0.212,1.055 -0.72,1.983 -1.52,2.785 -1.086,1.088 -2.399,1.63 -3.937,1.63 -1.537,0 -2.85,-0.542 -3.937,-1.63 -1.087,-1.089 -1.629,-2.399 -1.629,-3.936 0,-1.538 0.542,-2.851 1.629,-3.938 1.087,-1.087 2.4,-1.632 3.937,-1.632 1.538,0 2.851,0.545 3.937,1.632 0.793,0.793 1.299,1.712 1.52,2.761 z m -0.023,-5.151 c -0.205,-0.259 -0.425,-0.515 -0.664,-0.758 -1.315,-1.318 -2.906,-1.975 -4.77,-1.975 -1.856,0 -3.442,0.657 -4.758,1.975 -1.316,1.314 -1.973,2.9 -1.973,4.758 0,1.864 0.657,3.452 1.973,4.764 1.316,1.313 2.902,1.967 4.758,1.967 1.864,0 3.455,-0.654 4.77,-1.963 0.254,-0.262 0.487,-0.535 0.701,-0.82 v 1.706 h 1.103 v -9.359 c 0,-1.807 -0.643,-3.352 -1.927,-4.634 -1.316,-1.318 -2.902,-1.975 -4.757,-1.975 -1.864,0 -3.454,0.657 -4.772,1.975 -0.268,0.268 -0.51,0.552 -0.722,0.845 l 1.164,0.416 c 0.124,-0.147 0.254,-0.29 0.393,-0.429 1.087,-1.087 2.4,-1.63 3.937,-1.63 1.528,0 2.837,0.543 3.923,1.63 0.991,0.99 1.529,2.16 1.621,3.507"
             style="fill:#dba4a2;fill-opacity:1;fill-rule:nonzero;stroke:none"
             id="path114" /></g><g
           id="g116"
           transform="translate(541.5898,147.2578)"><path
             d="m 0,0 v -2.306 c 0.214,-1.054 0.72,-1.981 1.521,-2.783 1.088,-1.087 2.401,-1.632 3.938,-1.632 1.535,0 2.848,0.545 3.935,1.632 1.087,1.087 1.632,2.4 1.632,3.938 0,1.537 -0.545,2.847 -1.632,3.936 -1.087,1.088 -2.4,1.63 -3.935,1.63 -1.537,0 -2.85,-0.542 -3.938,-1.63 C 0.72,1.983 0.214,1.055 0,0 M -1.103,4.503 H 0 V 2.809 c 0.205,0.278 0.439,0.546 0.699,0.808 1.317,1.309 2.903,1.963 4.76,1.963 1.864,0 3.452,-0.654 4.763,-1.967 1.312,-1.312 1.969,-2.9 1.969,-4.764 0,-1.858 -0.657,-3.444 -1.969,-4.758 -1.311,-1.318 -2.899,-1.975 -4.763,-1.975 -1.857,0 -3.443,0.657 -4.76,1.975 -0.26,0.26 -0.494,0.53 -0.699,0.808 v -7.04 h -1.103 z"
             style="fill:#dba4a2;fill-opacity:1;fill-rule:nonzero;stroke:none"
             id="path118" /></g><path
           d="m 557.95,139.717 h -1.103 v 19.621 h 1.103 z"
           style="fill:#dba4a2;fill-opacity:1;fill-rule:nonzero;stroke:none"
           id="path120" /><g
           id="g122"
           transform="translate(573.5244,145.0146)"><path
             d="m 0,0 v 2.184 c -0.204,1.078 -0.715,2.027 -1.533,2.844 -1.087,1.088 -2.4,1.63 -3.937,1.63 -1.536,0 -2.847,-0.542 -3.935,-1.63 -1.087,-1.089 -1.632,-2.399 -1.632,-3.936 0,-1.538 0.545,-2.848 1.632,-3.931 1.088,-1.085 2.399,-1.625 3.935,-1.625 1.537,0 2.85,0.543 3.937,1.63 C -0.715,-2.016 -0.204,-1.071 0,0 M 1.104,-5.298 H 0 v 2.452 c -0.211,-0.285 -0.445,-0.56 -0.698,-0.82 -1.318,-1.317 -2.908,-1.975 -4.772,-1.975 -1.855,0 -3.441,0.658 -4.758,1.975 -1.317,1.314 -1.974,2.9 -1.974,4.758 0,1.864 0.657,3.454 1.974,4.768 1.317,1.318 2.903,1.975 4.758,1.975 1.864,0 3.454,-0.657 4.772,-1.975 C -0.445,5.599 -0.211,5.325 0,5.04 v 1.706 h 1.104 z"
             style="fill:#dba4a2;fill-opacity:1;fill-rule:nonzero;stroke:none"
             id="path124" /></g><g
           id="g126"
           transform="translate(579.4111,149.0732)"><path
             d="M 0,0 V -9.356 H -1.104 V 2.688 H 0 V 1.912 C 1.007,2.91 2.174,3.409 3.507,3.409 4.93,3.409 6.086,2.963 6.978,2.073 7.869,1.182 8.327,0.058 8.353,-1.301 V -9.356 H 7.249 v 7.959 c 0,1.02 -0.37,1.894 -1.11,2.618 C 5.398,1.944 4.521,2.306 3.507,2.306 2.493,2.306 1.62,1.949 0.883,1.239 0.482,0.839 0.188,0.426 0,0"
             style="fill:#dba4a2;fill-opacity:1;fill-rule:nonzero;stroke:none"
             id="path128" /></g><g
           id="g130"
           transform="translate(592.5469,149.0732)"><path
             d="M 0,0 V -9.356 H -1.104 V 2.688 H 0 V 1.912 C 1.004,2.91 2.174,3.409 3.507,3.409 4.93,3.409 6.086,2.963 6.978,2.073 7.867,1.182 8.327,0.058 8.35,-1.301 V -9.356 H 7.246 v 7.959 c 0,1.02 -0.369,1.894 -1.109,2.618 C 5.396,1.944 4.521,2.306 3.507,2.306 2.493,2.306 1.617,1.949 0.882,1.239 0.482,0.839 0.188,0.426 0,0"
             style="fill:#dba4a2;fill-opacity:1;fill-rule:nonzero;stroke:none"
             id="path132" /></g><g
           id="g134"
           transform="translate(613.9082,150.5693)"><path
             d="m 0,0 c -0.956,0.736 -2.068,1.104 -3.335,1.104 -1.531,0 -2.839,-0.542 -3.926,-1.625 -1.087,-1.083 -1.63,-2.393 -1.63,-3.93 0,-1.267 0.369,-2.379 1.104,-3.336 z m -7.04,-8.596 c 1.039,-0.949 2.273,-1.423 3.705,-1.423 1.535,0 2.848,0.543 3.935,1.63 0.14,0.14 0.271,0.283 0.393,0.43 L 2.158,-8.375 C 1.944,-8.669 1.705,-8.952 1.435,-9.221 c -1.318,-1.317 -2.906,-1.974 -4.77,-1.974 -1.857,0 -3.443,0.657 -4.76,1.974 -1.315,1.315 -1.974,2.906 -1.974,4.77 0,1.856 0.659,3.442 1.974,4.757 1.317,1.317 2.903,1.974 4.76,1.974 1.593,0 2.987,-0.477 4.181,-1.433 C 1.041,0.683 1.238,0.504 1.435,0.306 1.508,0.232 1.576,0.159 1.644,0.086 L 0.809,-0.746 Z"
             style="fill:#dba4a2;fill-opacity:1;fill-rule:nonzero;stroke:none"
             id="path136" /></g><g
           id="g138"
           transform="translate(619.0107,151.7607)"><path
             d="m 0,0 h 1.104 v -2.197 c 0.227,0.328 0.494,0.643 0.796,0.944 0.973,0.975 1.97,1.484 2.991,1.533 V -0.922 C 4.197,-0.954 3.478,-1.343 2.732,-2.087 1.687,-3.124 1.145,-4.372 1.104,-5.827 v -6.217 H 0 Z"
             style="fill:#dba4a2;fill-opacity:1;fill-rule:nonzero;stroke:none"
             id="path140" /></g><g
           id="g142"
           transform="translate(285.0161,291.4766)"><path
             d="M 0,0 H -6.435 L 33.517,109.73 73.399,0 H 67.032 L 33.517,92.101 Z"
             style="fill:#dba4a2;fill-opacity:1;fill-rule:nonzero;stroke:none"
             id="path144" /></g><g
           id="g146"
           transform="translate(492.8535,291.4766)"><path
             d="M 0,0 H -6.435 L 33.518,109.73 76.905,-8.53 73.786,-17.191 33.518,92.101 Z"
             style="fill:#dba4a2;fill-opacity:1;fill-rule:nonzero;stroke:none"
             id="path148" /></g><g
           id="g150"
           transform="translate(538.9404,168.1816)"><path
             d="M 0,0 H -6.435 L 33.518,109.73 73.4,0 H 67.032 L 33.518,92.101 Z"
             style="fill:#dba4a2;fill-opacity:1;fill-rule:nonzero;stroke:none"
             id="path152" /></g><g
           id="g154"
           transform="translate(385.002,392.627)"><path
             d="m 0,0 v -57.847 h 18.234 c 7.953,0 14.757,2.826 20.411,8.479 5.651,5.651 8.479,12.477 8.479,20.478 0,7.998 -2.828,14.813 -8.479,20.445 C 32.991,-2.814 26.187,0 18.234,0 Z m 20.042,-63.88 c -0.579,-0.045 -1.184,-0.068 -1.808,-0.068 H 0 V -101.15 H -6.033 V 6.101 h 28.155 c 8.176,-1.119 15.126,-4.538 20.847,-10.256 6.837,-6.838 10.256,-15.083 10.256,-24.735 0,-9.699 -3.419,-17.964 -10.256,-24.802 -4.738,-4.737 -10.168,-7.843 -16.289,-9.317 l 24.734,-38.141 h -7.441 z"
             style="fill:#dba4a2;fill-opacity:1;fill-rule:nonzero;stroke:none"
             id="path156" /></g><g
           id="g158"
           transform="translate(183.7861,236.6543)"><path
             d="M 0,0 V -61.333 H 39.653 V -61.4 c 7.462,0.491 13.897,3.552 19.305,9.184 5.942,6.12 8.916,13.382 8.916,21.785 0,8.401 -2.974,15.573 -8.916,21.516 C 53.013,-2.972 45.841,0 37.44,0 Z M 0,33.852 V 6.435 h 39.452 c 3.352,0.312 6.21,1.563 8.579,3.753 2.727,2.502 4.091,5.766 4.091,9.789 0,4.021 -1.364,7.338 -4.091,9.953 -2.727,2.614 -6.099,3.922 -10.121,3.922 z m 37.91,6.033 c 5.496,0 10.2,-1.946 14.111,-5.831 3.91,-3.889 5.864,-8.58 5.864,-14.077 0,-5.543 -2.839,-10.706 -8.513,-15.485 5.004,-1.029 9.719,-3.978 14.144,-8.849 7.15,-7.195 10.725,-15.885 10.725,-26.074 0,-10.146 -3.575,-18.926 -10.725,-26.345 -6.66,-6.882 -14.613,-10.388 -23.863,-10.523 v -0.067 H -6.033 V 39.885 Z"
             style="fill:#dba4a2;fill-opacity:1;fill-rule:nonzero;stroke:none"
             id="path160" /></g><g
           id="g162"
           transform="translate(318.4995,272.0195)"><path
             d="m 0,0 c -13.497,0 -25.016,-4.771 -34.557,-14.313 -9.542,-9.541 -14.31,-21.059 -14.31,-34.554 0,-13.497 4.768,-25.027 14.31,-34.588 9.541,-9.565 21.06,-14.344 34.557,-14.344 13.495,0 25.013,4.779 34.555,14.344 9.539,9.561 14.31,21.091 14.31,34.588 0,13.495 -4.771,25.013 -14.31,34.554 C 25.013,-4.771 13.495,0 0,0 m 38.91,-9.955 c 10.748,-10.747 16.123,-23.719 16.123,-38.912 0,-15.193 -5.375,-28.164 -16.123,-38.912 -10.748,-10.747 -23.717,-16.12 -38.91,-16.12 -15.195,0 -28.167,5.373 -38.912,16.12 -10.751,10.748 -16.123,23.719 -16.123,38.912 0,15.193 5.372,28.165 16.123,38.912 C -28.167,0.793 -15.195,6.166 0,6.166 c 15.193,0 28.162,-5.373 38.91,-16.121"
             style="fill:#dba4a2;fill-opacity:1;fill-rule:nonzero;stroke:none"
             id="path164" /></g><g
           id="g166"
           transform="translate(378.9687,276.5391)"><path
             d="M 0,0 H 6.638 L 61.737,-95.387 V 0 h 6.034 V -107.251 H 61.737 L 6.033,-10.926 v -96.325 H 0 Z"
             style="fill:#dba4a2;fill-opacity:1;fill-rule:nonzero;stroke:none"
             id="path168" /></g><g
           id="g170"
           transform="translate(510.417,270.5059)"><path
             d="M 0,0 V -101.218 H -6.031 V 0 h -27.15 V 6.033 H 27.148 V 0 Z"
             style="fill:#dba4a2;fill-opacity:1;fill-rule:nonzero;stroke:none"
             id="path172" /></g><g
           id="g174"
           transform="translate(318.498,278.1855)"><path
             d="m 0,0 -13.799,13.799 6.525,6.525 H 0 7.274 l 6.525,-6.525 z"
             style="fill:#dba4a2;fill-opacity:1;fill-rule:nonzero;stroke:none"
             id="path176" /></g><path
           d="m 466.836,398.728 h -6.748 V 168.121 h 6.748 z"
           style="fill:#dba4a2;fill-opacity:1;fill-rule:nonzero;stroke:none"
           id="path178" /><g
           id="g180"
           transform="translate(217.4893,329.4731)"><path
             d="m 0,0 45.746,68.417 c 0.347,0.518 0.987,0.837 1.681,0.837 h 6.882 L 53.996,68.785 V -37.997 h -3.588 c -1.88,0 -3.404,1.315 -3.404,2.937 v 90.597 c 0,0.766 -1.175,1.038 -1.619,0.375 L 3.976,-5.927 c -1.175,-1.755 -4.283,-1.035 -4.283,0.99 v 3.947 c 0,0.348 0.106,0.689 0.307,0.99"
             style="fill:#dba4a2;fill-opacity:1;fill-rule:nonzero;stroke:none"
             id="path182" /></g><g
           id="g184"
           transform="translate(227.8413,324.0625)"><path
             d="m 0,0 -41.135,61.327 c -0.444,0.662 -1.618,0.39 -1.618,-0.375 v -93.538 h -6.991 V 74.195 l -0.311,0.47 h 5.582 c 1.497,0 2.881,-0.689 3.631,-1.808 L 4.303,5.449 C 4.522,5.123 4.637,4.753 4.637,4.376 V 1.074 C 4.637,-1.119 1.273,-1.898 0,0"
             style="fill:#dba4a2;fill-opacity:1;fill-rule:nonzero;stroke:none"
             id="path186" /></g></g></g></g></svg>
